<svg xmlns="http://www.w3.org/2000/svg" viewBox="0 0 16 20" enable-background="new 0 0 16 20"><style type="text/css">.st0{fill:#FFFFFF;}</style><path class="st0" d="M15.5.2c-.3-.2-.7-.2-1 0L11 1.9 8.6.2C8.3 0 7.8 0 7.5.2L4.9 1.8 1.4.1C1.1 0 .8 0 .5.2.2.3 0 .7 0 1v18c0 .3.2.7.5.9.1 0 .3.1.5.1s.3 0 .4-.1l3.5-1.7 2.5 1.7c.3.2.8.2 1.1 0l2.5-1.7 3.5 1.7c.3.2.7.1 1 0 .3-.2.5-.5.5-.9V1c0-.3-.2-.7-.5-.8zM11 8H7.5c-.3 0-.5.2-.5.5s.2.5.5.5h1c1.4 0 2.5 1.1 2.5 2.5 0 1.2-.9 2.2-2 2.4V15H7v-1H5v-2h3.5c.3 0 .5-.2.5-.5s-.2-.5-.5-.5h-1C6.1 11 5 9.9 5 8.5c0-1.2.9-2.2 2-2.4V5h2v1h2v2z"/></svg>