<?xml version="1.0" encoding="utf-8"?>
<!-- Generator: Adobe Illustrator 19.2.0, SVG Export Plug-In . SVG Version: 6.00 Build 0)  -->
<svg version="1.1" id="Layer_1" xmlns="http://www.w3.org/2000/svg" xmlns:xlink="http://www.w3.org/1999/xlink" x="0px" y="0px"
	 viewBox="0 0 16 20" style="enable-background:new 0 0 16 20;" xml:space="preserve">
<style type="text/css">
	.st0{fill:#FFFFFF;}
</style>
<path class="st0" d="M15.5,0.2c-0.3-0.2-0.7-0.2-1,0l-3.5,1.7L8.6,0.2c-0.3-0.2-0.8-0.2-1.1,0L4.9,1.8L1.4,0.1C1.1,0,0.8,0,0.5,0.2
	C0.2,0.3,0,0.7,0,1v18c0,0.3,0.2,0.7,0.5,0.9C0.6,19.9,0.8,20,1,20c0.2,0,0.3,0,0.4-0.1l3.5-1.7l2.5,1.7c0.3,0.2,0.8,0.2,1.1,0
	l2.5-1.7l3.5,1.7c0.3,0.2,0.7,0.1,1,0c0.3-0.2,0.5-0.5,0.5-0.9V1C16,0.7,15.8,0.3,15.5,0.2z M11,8H7.5C7.2,8,7,8.2,7,8.5
	C7,8.8,7.2,9,7.5,9h1c1.4,0,2.5,1.1,2.5,2.5c0,1.2-0.9,2.2-2,2.4V15H7v-1H5v-2h3.5C8.8,12,9,11.8,9,11.5C9,11.2,8.8,11,8.5,11h-1
	C6.1,11,5,9.9,5,8.5c0-1.2,0.9-2.2,2-2.4V5h2v1h2V8z"/>
</svg>
